<svg width="14" height="14" viewBox="0 0 14 14" fill="none" xmlns="http://www.w3.org/2000/svg">
<path d="M7 2.125C9.69208 2.125 11.875 4.06417 11.875 6.45833C11.875 8.8525 8.625 11.875 7 11.875C5.375 11.875 2.125 8.8525 2.125 6.45833C2.125 4.06417 4.30792 2.125 7 2.125ZM6.08458 6.42042C5.53208 5.53208 4.54625 5.1475 3.88542 5.55917C3.22458 5.97083 3.13792 7.02708 3.69042 7.91542C4.24833 8.80375 5.23417 9.18833 5.895 8.77667C6.55583 8.35417 6.63708 7.30875 6.08458 6.42042ZM7.91542 6.42042C7.36292 7.30875 7.44417 8.35417 8.105 8.77667C8.76583 9.18833 9.75167 8.80375 10.3096 7.91542C10.8621 7.02708 10.7754 5.97083 10.1146 5.55917C9.45375 5.1475 8.46792 5.53208 7.91542 6.42042ZM7 10.1146C5.91667 10.1146 5.64583 9.70833 5.64583 9.70833C5.64583 9.72458 5.91667 10.7917 7 10.7917C8.08333 10.7917 8.35417 9.70833 8.35417 9.70833C8.35417 9.70833 8.08333 10.1146 7 10.1146Z" fill="#E33134"/>
</svg>
