<svg width="12" height="16" viewBox="0 0 12 16" fill="none" xmlns="http://www.w3.org/2000/svg">
<path d="M11.3656 7.84125L4.36562 15.3413C4.29144 15.4204 4.19353 15.4733 4.08665 15.4919C3.97977 15.5106 3.86974 15.4939 3.77314 15.4445C3.67655 15.3952 3.59864 15.3157 3.55117 15.2181C3.5037 15.1206 3.48925 15.0102 3.51 14.9038L4.42625 10.3206L0.824375 8.96813C0.74702 8.93919 0.678037 8.89154 0.623589 8.82944C0.569142 8.76734 0.530925 8.69272 0.512354 8.61225C0.493783 8.53177 0.495436 8.44795 0.517165 8.36827C0.538894 8.28859 0.580022 8.21553 0.636875 8.15563L7.63688 0.655626C7.71106 0.57646 7.80897 0.52357 7.91585 0.504936C8.02273 0.486302 8.13276 0.502936 8.22936 0.552327C8.32595 0.601717 8.40386 0.681185 8.45133 0.778739C8.4988 0.876293 8.51325 0.986639 8.4925 1.09313L7.57375 5.68125L11.1756 7.03188C11.2524 7.06101 11.3208 7.1086 11.3749 7.17045C11.4289 7.23231 11.4668 7.30652 11.4854 7.38652C11.5039 7.46653 11.5025 7.54987 11.4811 7.62918C11.4598 7.70849 11.4193 7.78132 11.3631 7.84125H11.3656Z" fill="#1F1F1F"/>
</svg>
