<svg width="12" height="12" viewBox="0 0 12 12" fill="none" xmlns="http://www.w3.org/2000/svg">
<g clip-path="url(#clip0_30_34)">
<path d="M6.00001 12C9.31372 12 12 9.31371 12 6C12 2.68629 9.31372 0 6.00001 0C2.6863 0 7.62939e-06 2.68629 7.62939e-06 6C7.62939e-06 9.31371 2.6863 12 6.00001 12Z" fill="#2775CA"/>
<path d="M7.50826 6.7965C7.50826 6 7.02826 5.727 6.06826 5.613C5.38276 5.52188 5.24588 5.34 5.24588 5.02125C5.24588 4.7025 5.47463 4.49775 5.93138 4.49775C6.34276 4.49775 6.57151 4.63425 6.68551 4.97588C6.69748 5.00885 6.71922 5.03739 6.74783 5.05769C6.77643 5.078 6.81055 5.08909 6.84563 5.0895H7.21126C7.23237 5.09007 7.25339 5.08633 7.27302 5.07853C7.29265 5.07073 7.3105 5.05903 7.32547 5.04413C7.34044 5.02922 7.35223 5.01143 7.36012 4.99184C7.36802 4.97224 7.37185 4.95125 7.37138 4.93013V4.90763C7.3267 4.66046 7.20164 4.43498 7.01563 4.2662C6.82963 4.09741 6.59308 3.99478 6.34276 3.97425V3.42825C6.34276 3.33713 6.27413 3.26888 6.16013 3.246H5.81701C5.72588 3.246 5.65726 3.31425 5.63438 3.42825V3.95175C4.94851 4.0425 4.51463 4.49775 4.51463 5.067C4.51463 5.81775 4.97138 6.11363 5.93138 6.22763C6.57151 6.34125 6.77701 6.47813 6.77701 6.84225C6.77701 7.206 6.45713 7.4565 6.02288 7.4565C5.42851 7.4565 5.22301 7.20638 5.15438 6.86475C5.13188 6.774 5.06288 6.72825 4.99426 6.72825H4.60576C4.58467 6.72774 4.5637 6.73151 4.54411 6.73933C4.52452 6.74716 4.50672 6.75887 4.49179 6.77377C4.47686 6.78867 4.4651 6.80644 4.45723 6.82601C4.44936 6.84558 4.44554 6.86654 4.44601 6.88763V6.91013C4.53713 7.47938 4.90313 7.88888 5.65726 8.00288V8.54925C5.65726 8.64 5.72588 8.70863 5.83988 8.73113H6.18301C6.27413 8.73113 6.34276 8.66288 6.36563 8.54925V8.0025C7.05151 7.88888 7.50826 7.41075 7.50826 6.79613V6.7965Z" fill="#EDEDED"/>
<path d="M4.83451 9.18637C3.05176 8.54887 2.13751 6.56887 2.80051 4.8165C3.14326 3.86025 3.89738 3.13238 4.83451 2.79075C4.92601 2.74537 4.97138 2.67713 4.97138 2.56313V2.24438C4.97138 2.15363 4.92601 2.08537 4.83451 2.0625C4.81163 2.0625 4.76588 2.0625 4.74301 2.085C4.22867 2.24562 3.75118 2.5064 3.33804 2.85231C2.9249 3.19823 2.58427 3.62246 2.33575 4.10056C2.08723 4.57866 1.93575 5.10121 1.89001 5.6381C1.84428 6.17499 1.90519 6.71562 2.06926 7.22888C2.48026 8.50388 3.46313 9.48263 4.74301 9.89213C4.83451 9.9375 4.92601 9.89212 4.94851 9.801C4.97138 9.7785 4.97138 9.75525 4.97138 9.70988V9.39112C4.97138 9.32287 4.90313 9.23212 4.83451 9.18637ZM7.25701 2.08537C7.16551 2.03962 7.07401 2.08537 7.05151 2.17612C7.02863 2.199 7.02863 2.22187 7.02863 2.26725V2.586C7.02863 2.67712 7.09688 2.76787 7.16551 2.81362C8.94826 3.45112 9.86251 5.43113 9.19951 7.1835C8.85676 8.13975 8.10263 8.86763 7.16551 9.20925C7.07401 9.25463 7.02863 9.32288 7.02863 9.43688V9.75562C7.02863 9.84637 7.07401 9.91463 7.16551 9.9375C7.18838 9.9375 7.23413 9.9375 7.25701 9.915C7.77135 9.75438 8.24883 9.4936 8.66197 9.14769C9.07512 8.80177 9.41575 8.37754 9.66427 7.89944C9.91278 7.42134 10.0643 6.89879 10.11 6.3619C10.1557 5.82501 10.0948 5.28438 9.93076 4.77112C9.51976 3.47362 8.51401 2.49487 7.25701 2.08537Z" fill="#EDEDED"/>
</g>
<defs>
<clipPath id="clip0_30_34">
<rect width="12" height="12" fill="white"/>
</clipPath>
</defs>
</svg>
