<svg width="12" height="12" viewBox="0 0 12 12" fill="none" xmlns="http://www.w3.org/2000/svg">
<path d="M10.4199 5.76844L6.29485 0.518437C6.25976 0.473788 6.21499 0.437691 6.16392 0.412871C6.11284 0.38805 6.0568 0.375153 6.00001 0.375153C5.94322 0.375153 5.88718 0.38805 5.8361 0.412871C5.78503 0.437691 5.74025 0.473788 5.70517 0.518437L1.58017 5.76844C1.52831 5.83449 1.50013 5.91603 1.50013 6C1.50013 6.08397 1.52831 6.16551 1.58017 6.23156L5.70517 11.4816C5.74025 11.5262 5.78503 11.5623 5.8361 11.5871C5.88718 11.6119 5.94322 11.6248 6.00001 11.6248C6.0568 11.6248 6.11284 11.6119 6.16392 11.5871C6.21499 11.5623 6.25976 11.5262 6.29485 11.4816L10.4199 6.23156C10.4717 6.16551 10.4999 6.08397 10.4999 6C10.4999 5.91603 10.4717 5.83449 10.4199 5.76844ZM6.37501 7.29281V1.83422L9.53532 5.85609L6.37501 7.29281ZM5.62501 7.29281L2.4647 5.85609L5.62501 1.83422V7.29281ZM5.62501 8.11641V10.1658L3.12048 6.97828L5.62501 8.11641Z" fill="#C7C7C7"/>
</svg>
