<svg width="11" height="12" viewBox="0 0 11 12" fill="none" xmlns="http://www.w3.org/2000/svg">
<g clip-path="url(#clip0_0_435)">
<path d="M6.25025 10.0076C6.20413 10.2634 5.95707 10.4315 5.70223 10.3805C5.45316 10.3307 5.29034 10.09 5.3368 9.84026L5.52942 8.80495C5.58386 8.51231 5.46763 8.21412 5.2295 8.03553L4.20412 7.26649C4.05583 7.15527 3.95182 6.99504 3.9106 6.81432L3.5987 5.44675C3.49991 5.0136 2.97548 4.8415 2.63925 5.13188C2.47697 5.27203 2.40365 5.48929 2.44783 5.69911L2.64493 6.63535C2.69813 6.88803 2.53491 7.13556 2.2817 7.1862C2.03099 7.23634 1.78694 7.07433 1.73581 6.82381L1.46158 5.48009C1.40589 5.20721 1.49938 4.92529 1.70708 4.73976L3.40365 3.22429C3.57869 3.07207 3.78615 3.00936 4.02604 3.03615C4.26592 3.06294 4.49606 3.12185 4.71646 3.21287C4.96 3.31942 5.21313 3.39552 5.47584 3.44118C5.73856 3.48685 6.00295 3.49065 6.26901 3.4526C6.53507 3.41455 6.78059 3.32703 7.00555 3.19004C7.10246 3.13103 7.19749 3.0692 7.29067 3.00455C7.4947 2.86297 7.77724 2.89079 7.93313 3.0841C8.09102 3.27988 8.05724 3.56825 7.85013 3.71095C7.73953 3.78715 7.62726 3.86086 7.51333 3.93206C7.26979 4.08427 7.00723 4.20224 6.72564 4.28595C6.47449 4.35445 6.22152 4.39067 5.96672 4.39463C5.61417 4.40011 5.29846 4.71232 5.37612 5.05625L5.40729 5.19427C5.47406 5.48998 5.76306 5.67968 6.06093 5.62332L6.88887 5.46668C7.0982 5.42708 7.31463 5.47451 7.48822 5.59802L9.20789 6.82164C9.4179 6.97107 9.46353 7.26419 9.30888 7.47039C9.16061 7.66809 8.88234 7.71273 8.67967 7.57133L7.2954 6.60556C7.15742 6.50929 6.9863 6.47308 6.82115 6.50519L6.61828 6.54464C6.16534 6.63271 6.03298 7.21706 6.40376 7.4917C6.56593 7.61183 6.64589 7.81355 6.61008 8.01216L6.25025 10.0076ZM3.6548 2.71058C3.40365 2.71058 3.18873 2.62123 3.01003 2.44253C2.83134 2.26384 2.74184 2.04876 2.74154 1.79731C2.74123 1.54586 2.83073 1.33094 3.01003 1.15255C3.18934 0.97416 3.40426 0.88466 3.6548 0.884052C3.90534 0.883443 4.12041 0.972942 4.30002 1.15255C4.47962 1.33216 4.56897 1.54708 4.56806 1.79731C4.56715 2.04755 4.4778 2.26262 4.30002 2.44253C4.12224 2.62245 3.90716 2.71179 3.6548 2.71058Z" fill="#747474"/>
</g>
<defs>
<clipPath id="clip0_0_435">
<rect width="10.9591" height="10.9591" fill="white" transform="translate(0 0.197849)"/>
</clipPath>
</defs>
</svg>
