<svg width="9" height="9" viewBox="0 0 9 9" fill="none" xmlns="http://www.w3.org/2000/svg">
<path d="M8.80876 1.86859L8.80546 1.87246L6.0174 4.97996V7.3643C6.01756 7.4777 5.99085 7.58938 5.93964 7.68939C5.88843 7.7894 5.81432 7.87463 5.7239 7.9375L4.40664 8.85445C4.30737 8.92347 4.19202 8.96306 4.07288 8.96899C3.95374 8.97492 3.8353 8.94697 3.73019 8.88812C3.62508 8.82927 3.53726 8.74173 3.47609 8.63485C3.41492 8.52797 3.38271 8.40575 3.38288 8.28125V4.97996L0.594823 1.87246L0.59153 1.86859C0.505804 1.77012 0.449298 1.64779 0.428865 1.51645C0.408433 1.38511 0.424953 1.2504 0.476421 1.12867C0.52789 1.00693 0.612095 0.903405 0.718821 0.830643C0.825547 0.757882 0.950208 0.719012 1.07768 0.71875H8.32261C8.45018 0.718763 8.57501 0.757452 8.68192 0.830117C8.78884 0.902782 8.87323 1.00629 8.92485 1.12808C8.97647 1.24986 8.99309 1.38467 8.9727 1.51613C8.95231 1.64759 8.89579 1.77003 8.80999 1.86859H8.80876Z" fill="#4A4A4A"/>
</svg>
