<svg width="11" height="9" viewBox="0 0 11 9" fill="none" xmlns="http://www.w3.org/2000/svg">
<path d="M10.2758 2.18166L9.44791 1.35459C9.38365 1.29032 9.29649 1.25422 9.20561 1.25422C9.11473 1.25422 9.02757 1.29032 8.96331 1.35459C8.89904 1.41885 8.86294 1.506 8.86294 1.59688C8.86294 1.68777 8.89904 1.77492 8.96331 1.83918L9.79038 2.66711C9.85428 2.73108 9.89028 2.81772 9.89055 2.90813V6.39151C9.89055 6.48234 9.85447 6.56945 9.79025 6.63367C9.72602 6.6979 9.63891 6.73398 9.54808 6.73398C9.45725 6.73398 9.37014 6.6979 9.30591 6.63367C9.24169 6.56945 9.20561 6.48234 9.20561 6.39151V4.67914C9.20561 4.40665 9.09736 4.14533 8.90468 3.95265C8.712 3.75997 8.45068 3.65172 8.17819 3.65172H7.49324V1.59688C7.49324 1.3244 7.385 1.06307 7.19232 0.87039C6.99964 0.677711 6.73831 0.569466 6.46582 0.569466H3.04109C2.7686 0.569466 2.50727 0.677711 2.3146 0.87039C2.12192 1.06307 2.01367 1.3244 2.01367 1.59688V8.10387H1.32872C1.2379 8.10387 1.15079 8.13996 1.08656 8.20418C1.02233 8.26841 0.986252 8.35552 0.986252 8.44635C0.986252 8.53718 1.02233 8.62429 1.08656 8.68851C1.15079 8.75274 1.2379 8.78882 1.32872 8.78882H8.17819C8.26902 8.78882 8.35613 8.75274 8.42035 8.68851C8.48458 8.62429 8.52066 8.53718 8.52066 8.44635C8.52066 8.35552 8.48458 8.26841 8.42035 8.20418C8.35613 8.13996 8.26902 8.10387 8.17819 8.10387H7.49324V4.33667H8.17819C8.26902 4.33667 8.35613 4.37275 8.42035 4.43698C8.48458 4.5012 8.52066 4.58831 8.52066 4.67914V6.39151C8.52066 6.664 8.62891 6.92533 8.82158 7.118C9.01426 7.31068 9.27559 7.41893 9.54808 7.41893C9.82057 7.41893 10.0819 7.31068 10.2746 7.118C10.4673 6.92533 10.5755 6.664 10.5755 6.39151V2.90813C10.576 2.77325 10.5498 2.6396 10.4984 2.51491C10.4469 2.39022 10.3713 2.27695 10.2758 2.18166ZM2.69862 8.10387V1.59688C2.69862 1.50606 2.7347 1.41895 2.79893 1.35472C2.86315 1.29049 2.95026 1.25441 3.04109 1.25441H6.46582C6.55665 1.25441 6.64376 1.29049 6.70799 1.35472C6.77221 1.41895 6.80829 1.50606 6.80829 1.59688V8.10387H2.69862ZM6.12335 3.9942C6.12335 4.08503 6.08727 4.17214 6.02304 4.23636C5.95881 4.30059 5.87171 4.33667 5.78088 4.33667H3.72604C3.63521 4.33667 3.5481 4.30059 3.48387 4.23636C3.41965 4.17214 3.38356 4.08503 3.38356 3.9942C3.38356 3.90337 3.41965 3.81626 3.48387 3.75203C3.5481 3.68781 3.63521 3.65172 3.72604 3.65172H5.78088C5.87171 3.65172 5.95881 3.68781 6.02304 3.75203C6.08727 3.81626 6.12335 3.90337 6.12335 3.9942Z" fill="#747474"/>
</svg>
