<svg width="10" height="10" viewBox="0 0 10 10" fill="none" xmlns="http://www.w3.org/2000/svg">
<path d="M2.52453 8.3C2.56394 8.32962 2.60881 8.35118 2.65656 8.36344C2.70431 8.3757 2.75401 8.37843 2.80282 8.37146C2.85162 8.3645 2.89858 8.34798 2.94099 8.32284C2.98341 8.29771 3.02045 8.26446 3.05 8.225C3.27705 7.92227 3.57146 7.67656 3.90992 7.50733C4.24838 7.3381 4.62159 7.25 5 7.25C5.37841 7.25 5.75162 7.3381 6.09008 7.50733C6.42854 7.67656 6.72295 7.92227 6.95 8.225C6.97955 8.2644 7.01657 8.29759 7.05894 8.32268C7.10132 8.34777 7.14822 8.36427 7.19697 8.37123C7.24572 8.3782 7.29536 8.37549 7.34307 8.36327C7.39077 8.35105 7.4356 8.32955 7.475 8.3C7.5144 8.27045 7.54759 8.23343 7.57268 8.19106C7.59777 8.14869 7.61427 8.10178 7.62123 8.05303C7.6282 8.00428 7.62549 7.95464 7.61327 7.90693C7.60105 7.85923 7.57955 7.8144 7.55 7.775C7.21794 7.32981 6.77515 6.97929 6.26562 6.75828C6.54485 6.50335 6.74048 6.16995 6.82684 5.80184C6.9132 5.43374 6.88626 5.04812 6.74954 4.6956C6.61282 4.34309 6.37272 4.04014 6.06075 3.82652C5.74878 3.6129 5.37951 3.49859 5.00141 3.49859C4.62331 3.49859 4.25404 3.6129 3.94207 3.82652C3.63009 4.04014 3.38999 4.34309 3.25327 4.6956C3.11656 5.04812 3.08961 5.43374 3.17597 5.80184C3.26233 6.16995 3.45796 6.50335 3.73719 6.75828C3.22664 6.97887 2.78283 7.32942 2.45 7.775C2.39028 7.85451 2.36458 7.95448 2.37855 8.05293C2.39253 8.15139 2.44504 8.24026 2.52453 8.3ZM5 4.25C5.2225 4.25 5.44001 4.31598 5.62502 4.4396C5.81002 4.56321 5.95422 4.73891 6.03936 4.94448C6.12451 5.15005 6.14679 5.37625 6.10338 5.59448C6.05998 5.81271 5.95283 6.01316 5.7955 6.1705C5.63816 6.32783 5.43771 6.43498 5.21948 6.47838C5.00125 6.52179 4.77505 6.49951 4.56948 6.41436C4.36391 6.32922 4.18821 6.18502 4.0646 6.00002C3.94098 5.81501 3.875 5.5975 3.875 5.375C3.875 5.07663 3.99353 4.79048 4.2045 4.5795C4.41548 4.36853 4.70163 4.25 5 4.25ZM8.375 0.125H1.625C1.42609 0.125 1.23532 0.204018 1.09467 0.34467C0.954018 0.485322 0.875 0.676088 0.875 0.875V9.125C0.875 9.32391 0.954018 9.51468 1.09467 9.65533C1.23532 9.79598 1.42609 9.875 1.625 9.875H8.375C8.57391 9.875 8.76468 9.79598 8.90533 9.65533C9.04598 9.51468 9.125 9.32391 9.125 9.125V0.875C9.125 0.676088 9.04598 0.485322 8.90533 0.34467C8.76468 0.204018 8.57391 0.125 8.375 0.125ZM8.375 9.125H1.625V0.875H8.375V9.125ZM3.125 2C3.125 1.90054 3.16451 1.80516 3.23484 1.73484C3.30516 1.66451 3.40054 1.625 3.5 1.625H6.5C6.59946 1.625 6.69484 1.66451 6.76517 1.73484C6.83549 1.80516 6.875 1.90054 6.875 2C6.875 2.09946 6.83549 2.19484 6.76517 2.26516C6.69484 2.33549 6.59946 2.375 6.5 2.375H3.5C3.40054 2.375 3.30516 2.33549 3.23484 2.26516C3.16451 2.19484 3.125 2.09946 3.125 2Z" fill="#868686"/>
</svg>
