<svg width="12" height="12" viewBox="0 0 12 12" fill="none" xmlns="http://www.w3.org/2000/svg">
<path d="M4.875 10.125C4.875 10.2733 4.83101 10.4183 4.7486 10.5417C4.66619 10.665 4.54906 10.7611 4.41201 10.8179C4.27497 10.8747 4.12417 10.8895 3.97868 10.8606C3.8332 10.8316 3.69956 10.7602 3.59467 10.6553C3.48978 10.5504 3.41835 10.4168 3.38941 10.2713C3.36047 10.1258 3.37532 9.97503 3.43209 9.83799C3.48886 9.70094 3.58499 9.58381 3.70832 9.5014C3.83166 9.41899 3.97666 9.375 4.125 9.375C4.32391 9.375 4.51468 9.45402 4.65533 9.59467C4.79598 9.73532 4.875 9.92609 4.875 10.125ZM9 9.375C8.85166 9.375 8.70666 9.41899 8.58332 9.5014C8.45998 9.58381 8.36386 9.70094 8.30709 9.83799C8.25032 9.97503 8.23547 10.1258 8.26441 10.2713C8.29335 10.4168 8.36478 10.5504 8.46967 10.6553C8.57456 10.7602 8.7082 10.8316 8.85368 10.8606C8.99917 10.8895 9.14997 10.8747 9.28701 10.8179C9.42406 10.7611 9.54119 10.665 9.6236 10.5417C9.70601 10.4183 9.75 10.2733 9.75 10.125C9.75 9.92609 9.67098 9.73532 9.53033 9.59467C9.38968 9.45402 9.19891 9.375 9 9.375ZM11.2364 3.47531L10.0345 7.80094C9.96845 8.03723 9.82712 8.24553 9.63196 8.39424C9.43681 8.54296 9.19848 8.62397 8.95312 8.625H4.32C4.07392 8.62489 3.83463 8.5443 3.63862 8.39551C3.44262 8.24673 3.30065 8.03792 3.23438 7.80094L1.59 1.875H0.75C0.650544 1.875 0.555161 1.83549 0.484835 1.76516C0.414509 1.69484 0.375 1.59946 0.375 1.5C0.375 1.40054 0.414509 1.30516 0.484835 1.23483C0.555161 1.16451 0.650544 1.125 0.75 1.125H1.875C1.95699 1.12498 2.03672 1.15184 2.10199 1.20145C2.16726 1.25106 2.21448 1.32069 2.23641 1.39969L2.68078 3H10.875C10.9328 2.99999 10.9898 3.01334 11.0416 3.03902C11.0934 3.0647 11.1386 3.10201 11.1736 3.14803C11.2086 3.19405 11.2325 3.24753 11.2433 3.30431C11.2542 3.36108 11.2519 3.41961 11.2364 3.47531ZM10.3814 3.75H2.88937L3.95859 7.60031C3.98052 7.67931 4.02774 7.74894 4.09301 7.79855C4.15828 7.84816 4.23802 7.87502 4.32 7.875H8.95312C9.03511 7.87502 9.11484 7.84816 9.18011 7.79855C9.24538 7.74894 9.2926 7.67931 9.31453 7.60031L10.3814 3.75Z" fill="#868686"/>
</svg>
