<svg width="10" height="10" viewBox="0 0 10 10" fill="none" xmlns="http://www.w3.org/2000/svg">
<path d="M8.43712 2.25371H5.69733V0.883813C5.69733 0.792983 5.66125 0.705874 5.59703 0.641648C5.5328 0.577422 5.44569 0.54134 5.35486 0.54134C5.26403 0.54134 5.17692 0.577422 5.1127 0.641648C5.04847 0.705874 5.01239 0.792983 5.01239 0.883813V2.25371H2.2726C1.90928 2.25371 1.56085 2.39803 1.30394 2.65494C1.04704 2.91184 0.90271 3.26028 0.90271 3.6236V8.41822C0.90271 8.78154 1.04704 9.12998 1.30394 9.38688C1.56085 9.64379 1.90928 9.78811 2.2726 9.78811H8.43712C8.80044 9.78811 9.14887 9.64379 9.40578 9.38688C9.66268 9.12998 9.80701 8.78154 9.80701 8.41822V3.6236C9.80701 3.26028 9.66268 2.91184 9.40578 2.65494C9.14887 2.39803 8.80044 2.25371 8.43712 2.25371ZM9.12206 8.41822C9.12206 8.59988 9.0499 8.7741 8.92145 8.90255C8.793 9.031 8.61878 9.10317 8.43712 9.10317H2.2726C2.09094 9.10317 1.91672 9.031 1.78827 8.90255C1.65982 8.7741 1.58766 8.59988 1.58766 8.41822V3.6236C1.58766 3.44194 1.65982 3.26772 1.78827 3.13927C1.91672 3.01082 2.09094 2.93865 2.2726 2.93865H8.43712C8.61878 2.93865 8.793 3.01082 8.92145 3.13927C9.0499 3.26772 9.12206 3.44194 9.12206 3.6236V8.41822ZM6.89599 6.02091H3.81373C3.49583 6.02091 3.19095 6.1472 2.96615 6.37199C2.74136 6.59678 2.61508 6.90166 2.61508 7.21956C2.61508 7.53747 2.74136 7.84235 2.96615 8.06714C3.19095 8.29193 3.49583 8.41822 3.81373 8.41822H6.89599C7.21389 8.41822 7.51878 8.29193 7.74357 8.06714C7.96836 7.84235 8.09465 7.53747 8.09465 7.21956C8.09465 6.90166 7.96836 6.59678 7.74357 6.37199C7.51878 6.1472 7.21389 6.02091 6.89599 6.02091ZM5.86857 6.70586V7.73327H4.84115V6.70586H5.86857ZM3.30002 7.21956C3.30002 7.08332 3.35414 6.95266 3.45048 6.85632C3.54682 6.75998 3.67749 6.70586 3.81373 6.70586H4.1562V7.73327H3.81373C3.67749 7.73327 3.54682 7.67915 3.45048 7.58281C3.35414 7.48647 3.30002 7.35581 3.30002 7.21956ZM6.89599 7.73327H6.55352V6.70586H6.89599C7.03223 6.70586 7.1629 6.75998 7.25924 6.85632C7.35558 6.95266 7.4097 7.08332 7.4097 7.21956C7.4097 7.35581 7.35558 7.48647 7.25924 7.58281C7.1629 7.67915 7.03223 7.73327 6.89599 7.73327ZM2.95755 4.82225C2.95755 4.72065 2.98768 4.62133 3.04412 4.53685C3.10057 4.45237 3.1808 4.38653 3.27467 4.34765C3.36854 4.30877 3.47183 4.29859 3.57148 4.31841C3.67113 4.33824 3.76266 4.38716 3.83451 4.45901C3.90635 4.53085 3.95528 4.62238 3.9751 4.72203C3.99492 4.82168 3.98475 4.92497 3.94586 5.01884C3.90698 5.11271 3.84114 5.19294 3.75666 5.24939C3.67218 5.30583 3.57286 5.33596 3.47126 5.33596C3.33501 5.33596 3.20435 5.28184 3.10801 5.1855C3.01167 5.08916 2.95755 4.9585 2.95755 4.82225ZM6.72475 4.82225C6.72475 4.72065 6.75488 4.62133 6.81133 4.53685C6.86778 4.45237 6.94801 4.38653 7.04187 4.34765C7.13574 4.30877 7.23903 4.29859 7.33868 4.31841C7.43833 4.33824 7.52987 4.38716 7.60171 4.45901C7.67355 4.53085 7.72248 4.62238 7.7423 4.72203C7.76212 4.82168 7.75195 4.92497 7.71307 5.01884C7.67419 5.11271 7.60834 5.19294 7.52386 5.24939C7.43938 5.30583 7.34006 5.33596 7.23846 5.33596C7.10222 5.33596 6.97155 5.28184 6.87522 5.1855C6.77888 5.08916 6.72475 4.9585 6.72475 4.82225Z" fill="#747474"/>
</svg>
