<svg width="13" height="14" viewBox="0 0 13 14" fill="none" xmlns="http://www.w3.org/2000/svg">
<path d="M5.83502 6.85486V4.35486C5.83502 4.22225 5.8877 4.09507 5.98147 4.00131C6.07524 3.90754 6.20241 3.85486 6.33502 3.85486C6.46763 3.85486 6.59481 3.90754 6.68858 4.00131C6.78234 4.09507 6.83502 4.22225 6.83502 4.35486V6.85486C6.83502 6.98747 6.78234 7.11464 6.68858 7.20841C6.59481 7.30218 6.46763 7.35486 6.33502 7.35486C6.20241 7.35486 6.07524 7.30218 5.98147 7.20841C5.8877 7.11464 5.83502 6.98747 5.83502 6.85486ZM6.33502 9.85486C6.48336 9.85486 6.62836 9.81087 6.7517 9.72846C6.87504 9.64605 6.97117 9.52892 7.02793 9.39187C7.0847 9.25483 7.09955 9.10403 7.07061 8.95854C7.04167 8.81306 6.97024 8.67942 6.86535 8.57453C6.76046 8.46964 6.62683 8.39821 6.48134 8.36927C6.33585 8.34033 6.18505 8.35518 6.04801 8.41195C5.91096 8.46871 5.79383 8.56484 5.71142 8.68818C5.62901 8.81152 5.58502 8.95652 5.58502 9.10486C5.58502 9.30377 5.66404 9.49454 5.80469 9.63519C5.94534 9.77584 6.13611 9.85486 6.33502 9.85486ZM12.335 1.85486V5.35486C12.335 8.64986 10.74 10.6467 9.4019 11.7417C7.96065 12.9205 6.5269 13.3211 6.4644 13.3374C6.37846 13.3607 6.28784 13.3607 6.2019 13.3374C6.1394 13.3211 4.70752 12.9205 3.2644 11.7417C1.93002 10.6467 0.335022 8.64986 0.335022 5.35486V1.85486C0.335022 1.58964 0.440379 1.33529 0.627915 1.14775C0.815452 0.960215 1.06981 0.854858 1.33502 0.854858H11.335C11.6002 0.854858 11.8546 0.960215 12.0421 1.14775C12.2297 1.33529 12.335 1.58964 12.335 1.85486ZM11.335 1.85486H1.33502V5.35486C1.33502 7.68611 2.19877 9.57423 3.9019 10.968C4.62705 11.561 5.45056 12.0224 6.33502 12.3311C7.23121 12.0169 8.06501 11.5472 8.79815 10.9436C10.4813 9.55236 11.335 7.67173 11.335 5.35486V1.85486Z" fill="#747474"/>
</svg>
