<svg width="15" height="13" viewBox="0 0 15 13" fill="none" xmlns="http://www.w3.org/2000/svg">
<path d="M14.305 0.636882C14.2275 0.569987 14.1333 0.525498 14.0324 0.508207C13.9315 0.490916 13.8278 0.501479 13.7325 0.538757L1.06626 5.49563C0.886746 5.56543 0.73477 5.69166 0.633208 5.85531C0.531646 6.01896 0.485995 6.21118 0.503127 6.40302C0.52026 6.59486 0.599248 6.77594 0.728201 6.919C0.857155 7.06207 1.02909 7.15937 1.21813 7.19626L4.50001 7.84063V11.5C4.49936 11.6993 4.55859 11.8943 4.67003 12.0595C4.78147 12.2248 4.93997 12.3528 5.12501 12.4269C5.30975 12.5023 5.51292 12.5204 5.70809 12.4789C5.90327 12.4373 6.08142 12.3379 6.21938 12.1938L7.80188 10.5525L10.3125 12.75C10.4936 12.9107 10.7273 12.9996 10.9694 13C11.0755 12.9999 11.1809 12.9833 11.2819 12.9506C11.4468 12.8983 11.5952 12.8036 11.7122 12.6761C11.8292 12.5486 11.9108 12.3926 11.9488 12.2238L14.4856 1.18751C14.5083 1.08798 14.5035 0.984145 14.4717 0.887145C14.4399 0.790145 14.3822 0.703633 14.305 0.636882ZM10.4838 2.88688L4.88438 6.89688L1.78438 6.28876L10.4838 2.88688ZM5.50001 11.5V8.53251L7.04938 9.89126L5.50001 11.5ZM10.9706 12L5.80313 7.46876L13.2406 2.13813L10.9706 12Z" fill="#C7C7C7"/>
</svg>
