<svg width="20" height="20" viewBox="0 0 20 20" fill="none" xmlns="http://www.w3.org/2000/svg">
<g clip-path="url(#clip0_15_55)" filter="url(#filter0_d_15_55)">
<path d="M14.875 5.625H14.1077C14.0655 5.15624 13.9428 4.69827 13.7448 4.27125L14.4095 3.88734C14.4957 3.83762 14.5586 3.7557 14.5843 3.65962C14.6101 3.56353 14.5966 3.46115 14.5469 3.375C14.4971 3.28885 14.4152 3.22598 14.3191 3.20022C14.2231 3.17446 14.1207 3.18793 14.0345 3.23766L13.3689 3.62203C13.097 3.23808 12.7619 2.90302 12.378 2.63109L12.7623 1.96547C12.8121 1.87931 12.8255 1.77694 12.7998 1.68085C12.774 1.58477 12.7112 1.50285 12.625 1.45312C12.5388 1.4034 12.4365 1.38993 12.3404 1.41569C12.2443 1.44144 12.1624 1.50431 12.1127 1.59047L11.7288 2.25516C11.3017 2.05724 10.8438 1.9345 10.375 1.89234V1.125C10.375 1.02554 10.3355 0.930161 10.2652 0.859835C10.1948 0.789509 10.0995 0.75 10 0.75C9.90054 0.75 9.80516 0.789509 9.73484 0.859835C9.66451 0.930161 9.625 1.02554 9.625 1.125V1.89234C9.15624 1.9345 8.69827 2.05724 8.27125 2.25516L7.88734 1.59047C7.86272 1.54781 7.82994 1.51042 7.79086 1.48043C7.75179 1.45044 7.70719 1.42844 7.65962 1.41569C7.61204 1.40293 7.56242 1.39968 7.51358 1.4061C7.46475 1.41252 7.41766 1.4285 7.375 1.45312C7.28885 1.50285 7.22598 1.58477 7.20022 1.68085C7.17446 1.77694 7.18793 1.87931 7.23766 1.96547L7.62203 2.63109C7.23808 2.90302 6.90302 3.23808 6.63109 3.62203L5.96547 3.23766C5.87931 3.18793 5.77694 3.17446 5.68085 3.20022C5.58477 3.22598 5.50285 3.28885 5.45312 3.375C5.4034 3.46115 5.38993 3.56353 5.41569 3.65962C5.44144 3.7557 5.50431 3.83762 5.59047 3.88734L6.25516 4.27125C6.05724 4.69827 5.9345 5.15624 5.89234 5.625H5.125C5.02554 5.625 4.93016 5.66451 4.85983 5.73484C4.78951 5.80516 4.75 5.90054 4.75 6C4.75 6.09946 4.78951 6.19484 4.85983 6.26517C4.93016 6.33549 5.02554 6.375 5.125 6.375H5.89234C5.9345 6.84376 6.05724 7.30173 6.25516 7.72875L5.59047 8.11266C5.51894 8.15391 5.46302 8.21763 5.4314 8.29391C5.39978 8.37019 5.39423 8.45478 5.4156 8.53455C5.43697 8.61431 5.48407 8.68479 5.54959 8.73505C5.61511 8.78531 5.69539 8.81253 5.77797 8.8125C5.84381 8.8127 5.90852 8.79539 5.96547 8.76234L6.63109 8.37797C6.90302 8.76192 7.23808 9.09698 7.62203 9.36891L7.23766 10.0345C7.18793 10.1207 7.17446 10.2231 7.20022 10.3191C7.22598 10.4152 7.28885 10.4971 7.375 10.5469C7.46115 10.5966 7.56353 10.6101 7.65962 10.5843C7.7557 10.5586 7.83762 10.4957 7.88734 10.4095L8.27125 9.74484C8.69827 9.94276 9.15624 10.0655 9.625 10.1077V10.875C9.625 10.9745 9.66451 11.0698 9.73484 11.1402C9.80516 11.2105 9.90054 11.25 10 11.25C10.0995 11.25 10.1948 11.2105 10.2652 11.1402C10.3355 11.0698 10.375 10.9745 10.375 10.875V10.1077C10.8438 10.0655 11.3017 9.94276 11.7288 9.74484L12.1127 10.4095C12.1624 10.4957 12.2443 10.5586 12.3404 10.5843C12.4365 10.6101 12.5388 10.5966 12.625 10.5469C12.7112 10.4971 12.774 10.4152 12.7998 10.3191C12.8255 10.2231 12.8121 10.1207 12.7623 10.0345L12.378 9.36891C12.7619 9.09698 13.097 8.76192 13.3689 8.37797L14.0345 8.76234C14.0772 8.78698 14.1243 8.80296 14.1731 8.80939C14.222 8.81582 14.2716 8.81256 14.3192 8.79981C14.3667 8.78706 14.4113 8.76505 14.4504 8.73506C14.4895 8.70506 14.5223 8.66767 14.5469 8.625C14.5967 8.53891 14.6102 8.43656 14.5845 8.34048C14.5589 8.2444 14.4961 8.16245 14.41 8.11266L13.7453 7.72875C13.9431 7.3017 14.0656 6.84373 14.1077 6.375H14.875C14.9745 6.375 15.0698 6.33549 15.1402 6.26517C15.2105 6.19484 15.25 6.09946 15.25 6C15.25 5.90054 15.2105 5.80516 15.1402 5.73484C15.0698 5.66451 14.9745 5.625 14.875 5.625ZM10 2.625C10.8298 2.62599 11.6303 2.93232 12.2487 3.4856C12.8672 4.03888 13.2604 4.8004 13.3534 5.625H10.2166L8.64813 2.90859C9.0742 2.72133 9.53458 2.62475 10 2.625ZM6.625 6C6.62529 5.47132 6.74977 4.95011 6.98841 4.47836C7.22705 4.00661 7.57318 3.59752 7.99891 3.28406L9.56687 6L7.99891 8.71594C7.57318 8.40248 7.22705 7.99339 6.98841 7.52164C6.74977 7.04989 6.62529 6.52868 6.625 6ZM10 9.375C9.53475 9.37599 9.07438 9.28021 8.64813 9.09375L10.2166 6.375H13.3534C13.2604 7.1996 12.8672 7.96112 12.2487 8.5144C11.6303 9.06768 10.8298 9.37401 10 9.375Z" fill="#4FFFAB"/>
</g>
<defs>
<filter id="filter0_d_15_55" x="0" y="0" width="20" height="20" filterUnits="userSpaceOnUse" color-interpolation-filters="sRGB">
<feFlood flood-opacity="0" result="BackgroundImageFix"/>
<feColorMatrix in="SourceAlpha" type="matrix" values="0 0 0 0 0 0 0 0 0 0 0 0 0 0 0 0 0 0 127 0" result="hardAlpha"/>
<feOffset dy="4"/>
<feGaussianBlur stdDeviation="2"/>
<feComposite in2="hardAlpha" operator="out"/>
<feColorMatrix type="matrix" values="0 0 0 0 0 0 0 0 0 0 0 0 0 0 0 0 0 0 0.25 0"/>
<feBlend mode="normal" in2="BackgroundImageFix" result="effect1_dropShadow_15_55"/>
<feBlend mode="normal" in="SourceGraphic" in2="effect1_dropShadow_15_55" result="shape"/>
</filter>
<clipPath id="clip0_15_55">
<rect width="12" height="12" fill="white" transform="translate(4)"/>
</clipPath>
</defs>
</svg>
