<svg width="13" height="12" viewBox="0 0 13 12" fill="none" xmlns="http://www.w3.org/2000/svg">
<path d="M11 4.875C11 4.97446 10.9605 5.06984 10.8902 5.14016C10.8198 5.21049 10.7245 5.25 10.625 5.25C10.5255 5.25 10.4302 5.21049 10.3598 5.14016C10.2895 5.06984 10.25 4.97446 10.25 4.875V2.78062L7.14078 5.89031C7.07042 5.96068 6.97498 6.00021 6.87547 6.00021C6.77596 6.00021 6.68052 5.96068 6.61016 5.89031C6.53979 5.81995 6.50026 5.72451 6.50026 5.625C6.50026 5.52549 6.53979 5.43005 6.61016 5.35969L9.71937 2.25H7.625C7.52554 2.25 7.43016 2.21049 7.35983 2.14016C7.28951 2.06984 7.25 1.97446 7.25 1.875C7.25 1.77554 7.28951 1.68016 7.35983 1.60984C7.43016 1.53951 7.52554 1.5 7.625 1.5H10.625C10.7245 1.5 10.8198 1.53951 10.8902 1.60984C10.9605 1.68016 11 1.77554 11 1.875V4.875ZM9.125 6C9.02554 6 8.93016 6.03951 8.85983 6.10983C8.78951 6.18016 8.75 6.27554 8.75 6.375V9.75H2.75V3.75H6.125C6.22446 3.75 6.31984 3.71049 6.39016 3.64016C6.46049 3.56984 6.5 3.47446 6.5 3.375C6.5 3.27554 6.46049 3.18016 6.39016 3.10984C6.31984 3.03951 6.22446 3 6.125 3H2.75C2.55109 3 2.36032 3.07902 2.21967 3.21967C2.07902 3.36032 2 3.55109 2 3.75V9.75C2 9.94891 2.07902 10.1397 2.21967 10.2803C2.36032 10.421 2.55109 10.5 2.75 10.5H8.75C8.94891 10.5 9.13968 10.421 9.28033 10.2803C9.42098 10.1397 9.5 9.94891 9.5 9.75V6.375C9.5 6.27554 9.46049 6.18016 9.39017 6.10983C9.31984 6.03951 9.22446 6 9.125 6Z" fill="#ACACAC"/>
</svg>
