<svg width="14" height="12" viewBox="0 0 14 12" fill="none" xmlns="http://www.w3.org/2000/svg">
<path d="M12.0607 2.9265C11.9765 3.00375 11.8667 3.04727 11.7525 3.04875H0.935956C0.551956 3.04875 0.358456 2.61 0.623956 2.35275L2.40071 0.639751C2.48326 0.559782 2.59328 0.514431 2.70821 0.513H13.566C13.9537 0.513 14.1435 0.9555 13.8735 1.21425L12.0607 2.9265Z" fill="black"/>
<path d="M12.0607 11.3685C11.9759 11.4444 11.8662 11.4865 11.7525 11.487H0.935956C0.551956 11.487 0.358456 11.052 0.623956 10.7948L2.40071 9.07725C2.48396 8.99893 2.5939 8.95522 2.70821 8.955H13.566C13.9537 8.955 14.1435 9.3945 13.8735 9.651L12.0607 11.3685Z" fill="black"/>
<path d="M12.0607 4.85475C11.9759 4.77887 11.8662 4.73671 11.7525 4.73625H0.935956C0.551956 4.73625 0.358456 5.17125 0.623956 5.4285L2.40071 7.146C2.48396 7.22325 2.59346 7.266 2.70821 7.26825H13.566C13.9537 7.26825 14.1435 6.82875 13.8735 6.57225L12.0607 4.85475Z" fill="black"/>
</svg>
