<svg width="19" height="19" viewBox="0 0 19 19" fill="none" xmlns="http://www.w3.org/2000/svg">
<path d="M14.3097 6.4265C14.2255 6.50375 14.1158 6.54727 14.0015 6.54875H3.18498C2.80098 6.54875 2.60748 6.11 2.87298 5.85275L4.64973 4.13975C4.73228 4.05978 4.8423 4.01443 4.95723 4.013H15.815C16.2027 4.013 16.3925 4.4555 16.1225 4.71425L14.3097 6.4265Z" fill="#5D5D5D"/>
<path d="M14.3097 14.8685C14.2249 14.9444 14.1153 14.9865 14.0015 14.987H3.18498C2.80098 14.987 2.60748 14.552 2.87298 14.2948L4.64973 12.5773C4.73298 12.4989 4.84292 12.4552 4.95723 12.455H15.815C16.2027 12.455 16.3925 12.8945 16.1225 13.151L14.3097 14.8685Z" fill="#5D5D5D"/>
<path d="M14.3097 8.35475C14.2249 8.27887 14.1153 8.23671 14.0015 8.23625H3.18498C2.80098 8.23625 2.60748 8.67125 2.87298 8.9285L4.64973 10.646C4.73298 10.7233 4.84248 10.766 4.95723 10.7683H15.815C16.2027 10.7683 16.3925 10.3288 16.1225 10.0723L14.3097 8.35475Z" fill="#5D5D5D"/>
</svg>
