<svg width="11" height="12" viewBox="0 0 11 12" fill="none" xmlns="http://www.w3.org/2000/svg">
<path d="M10.9434 8.92865L9.12747 10.9386C9.088 10.9823 9.04023 11.0171 8.98716 11.0409C8.93409 11.0647 8.87684 11.0769 8.81898 11.0769H0.210811C0.169737 11.0769 0.129557 11.0645 0.0952101 11.0413C0.0608626 11.018 0.033843 10.9849 0.017471 10.9461C0.00109916 10.9072 -0.00391187 10.8642 0.00305366 10.8224C0.0100192 10.7807 0.0286578 10.7419 0.0566796 10.7109L1.87393 8.70091C1.9133 8.65737 1.96091 8.62262 2.01381 8.59884C2.06671 8.57505 2.12378 8.56273 2.1815 8.56262H10.7892C10.8303 8.56262 10.8704 8.57502 10.9048 8.59825C10.9391 8.6215 10.9661 8.65461 10.9826 8.69348C10.9989 8.73237 11.0039 8.77532 10.9969 8.8171C10.99 8.85889 10.9714 8.89765 10.9434 8.92865ZM9.12747 4.88113C9.088 4.83747 9.04023 4.80265 8.98716 4.77886C8.93409 4.75508 8.87684 4.74282 8.81898 4.74285H0.210811C0.169737 4.74285 0.129557 4.75523 0.0952101 4.77848C0.0608626 4.80173 0.033843 4.83482 0.017471 4.8737C0.00109916 4.91258 -0.00391187 4.95555 0.00305366 4.99733C0.0100192 5.0391 0.0286578 5.07787 0.0566796 5.10887L1.87393 7.11885C1.9133 7.1624 1.96091 7.19713 2.01381 7.22092C2.06671 7.2447 2.12378 7.25703 2.1815 7.25713H10.7892C10.8303 7.25713 10.8704 7.24475 10.9048 7.2215C10.9391 7.19825 10.9661 7.16515 10.9826 7.12628C10.9989 7.0874 11.0039 7.04443 10.9969 7.00265C10.99 6.96088 10.9714 6.92211 10.9434 6.8911L9.12747 4.88113ZM0.210811 3.43735H8.81898C8.87684 3.43738 8.93409 3.42512 8.98716 3.40133C9.04023 3.37754 9.088 3.34273 9.12747 3.29907L10.9434 1.28909C10.9714 1.25809 10.99 1.21932 10.9969 1.17755C11.0039 1.13577 10.9989 1.0928 10.9826 1.05392C10.9661 1.01504 10.9391 0.981945 10.9048 0.958699C10.8704 0.935452 10.8303 0.923067 10.7892 0.923065H2.1815C2.12378 0.923167 2.06671 0.935492 2.01381 0.959278C1.96091 0.983065 1.9133 1.01781 1.87393 1.06135L0.057148 3.07133C0.0291534 3.10229 0.0105229 3.14102 0.00354162 3.18275C-0.00343972 3.22448 0.00153155 3.26742 0.0178457 3.30628C0.0341599 3.34514 0.0611078 3.37823 0.0953846 3.40152C0.129662 3.4248 0.169777 3.43725 0.210811 3.43735Z" fill="url(#paint0_linear_30_27)"/>
<defs>
<linearGradient id="paint0_linear_30_27" x1="0.928529" y1="11.3189" x2="10.2759" y2="1.10937" gradientUnits="userSpaceOnUse">
<stop offset="0.08" stop-color="#9945FF"/>
<stop offset="0.3" stop-color="#8752F3"/>
<stop offset="0.5" stop-color="#5497D5"/>
<stop offset="0.6" stop-color="#43B4CA"/>
<stop offset="0.72" stop-color="#28E0B9"/>
<stop offset="0.97" stop-color="#19FB9B"/>
</linearGradient>
</defs>
</svg>
