<svg width="16" height="16" viewBox="0 0 16 16" fill="none" xmlns="http://www.w3.org/2000/svg">
<path d="M14.9487 6.07876C14.8862 5.88658 14.7682 5.71721 14.6096 5.59198C14.451 5.46674 14.2589 5.39125 14.0575 5.37501L10.37 5.07751L8.94625 1.63438C8.86925 1.44677 8.73821 1.28629 8.56977 1.17334C8.40133 1.0604 8.20311 1.00009 8.00031 1.00009C7.79751 1.00009 7.59929 1.0604 7.43086 1.17334C7.26242 1.28629 7.13137 1.44677 7.05438 1.63438L5.63188 5.07688L1.9425 5.37501C1.74074 5.39207 1.54849 5.4683 1.38986 5.59413C1.23122 5.71997 1.11325 5.88983 1.05073 6.08241C0.988197 6.275 0.983894 6.48176 1.03835 6.67679C1.09281 6.87181 1.20361 7.04643 1.35688 7.17876L4.16938 9.60563L3.3125 13.2344C3.26458 13.4315 3.27631 13.6385 3.34621 13.8289C3.41611 14.0194 3.54103 14.1848 3.7051 14.3041C3.86917 14.4235 4.065 14.4913 4.26773 14.4992C4.47047 14.507 4.67095 14.4544 4.84375 14.3481L8 12.4056L11.1581 14.3481C11.331 14.4532 11.5311 14.5048 11.7332 14.4963C11.9353 14.4879 12.1304 14.4199 12.2939 14.3008C12.4574 14.1817 12.582 14.0169 12.6521 13.8272C12.7221 13.6374 12.7344 13.4311 12.6875 13.2344L11.8275 9.60501L14.64 7.17813C14.7945 7.04602 14.9063 6.87103 14.9613 6.67532C15.0162 6.47961 15.0119 6.27199 14.9487 6.07876ZM13.99 6.42063L10.9462 9.04563C10.8768 9.10546 10.8252 9.18322 10.797 9.2704C10.7688 9.35759 10.7651 9.45085 10.7863 9.54001L11.7163 13.465C11.7187 13.4704 11.7189 13.4765 11.7169 13.4821C11.7149 13.4877 11.7109 13.4923 11.7056 13.495C11.6944 13.5038 11.6912 13.5019 11.6819 13.495L8.26188 11.3919C8.18311 11.3435 8.09246 11.3178 8 11.3178C7.90754 11.3178 7.81689 11.3435 7.73812 11.3919L4.31813 13.4963C4.30875 13.5019 4.30625 13.5038 4.29438 13.4963C4.2891 13.4936 4.28506 13.489 4.28308 13.4834C4.2811 13.4778 4.28134 13.4717 4.28375 13.4663L5.21375 9.54126C5.23495 9.4521 5.23123 9.35884 5.20301 9.27165C5.1748 9.18447 5.12316 9.10671 5.05375 9.04688L2.01 6.42188C2.0025 6.41563 1.99563 6.41001 2.00188 6.39063C2.00813 6.37126 2.01313 6.37376 2.0225 6.37251L6.0175 6.05001C6.10913 6.04215 6.19682 6.00917 6.27092 5.95469C6.34502 5.90022 6.40266 5.82637 6.4375 5.74126L7.97625 2.01563C7.98125 2.005 7.98313 2 7.99813 2C8.01312 2 8.015 2.005 8.02 2.01563L9.5625 5.74126C9.59767 5.8264 9.65567 5.90017 9.73012 5.95444C9.80456 6.0087 9.89255 6.04134 9.98438 6.04876L13.9794 6.37126C13.9887 6.37126 13.9944 6.37126 14 6.38938C14.0056 6.40751 14 6.41438 13.99 6.42063Z" fill="#4EF18F"/>
</svg>
