<svg width="10" height="10" viewBox="0 0 10 10" fill="none" xmlns="http://www.w3.org/2000/svg">
<path d="M9.51784 7.42484L9.5178 7.4248C9.39348 7.29725 9.24143 7.23353 9.05183 7.23353H5.85545H5.80876L5.76472 7.21807L4.81492 6.88473L4.55637 6.79399L4.64714 6.53546L4.79783 6.10623L4.89116 5.84037L5.1543 5.94112L5.9061 6.22894H7.13401C7.21048 6.22894 7.27125 6.20197 7.33298 6.14025C7.33298 6.14024 7.33299 6.14024 7.33299 6.14023M9.51784 7.42484L7.3258 5.44811C7.56324 5.544 7.68197 5.71295 7.68197 5.95953C7.68197 6.10109 7.63174 6.22894 7.52672 6.33397L7.33299 6.14023M9.51784 7.42484C9.60013 7.50923 9.65368 7.5976 9.68161 7.69135L6.30065 8.95448L3.38964 8.12281V4.49374H3.95703L7.22658 5.70353M9.51784 7.42484L7.22658 5.70353M7.33299 6.14023C7.38541 6.0878 7.40799 6.03016 7.40799 5.95953C7.40799 5.88165 7.38991 5.83514 7.36826 5.80412C7.34625 5.7726 7.30581 5.73608 7.22658 5.70353M7.33299 6.14023L7.22658 5.70353M9.23453 2.39324C9.23453 3.50223 8.33432 4.40242 7.22534 4.40242C6.11635 4.40242 5.21616 3.50223 5.21616 2.39324C5.21616 1.28426 6.11635 0.384067 7.22534 0.384067C8.33432 0.384067 9.23453 1.28426 9.23453 2.39324ZM0.642547 8.96871V4.49374H1.92842V8.96871H0.642547Z" stroke="#747474" stroke-width="0.547957"/>
</svg>
