<svg width="12" height="12" viewBox="0 0 12 12" fill="none" xmlns="http://www.w3.org/2000/svg">
<path d="M10.8235 3.45C10.6768 3.37811 10.5105 3.35656 10.3504 3.38867C10.1902 3.42079 10.0451 3.50478 9.93753 3.62766L8.35924 5.32875L6.68112 1.56516C6.68104 1.5636 6.68104 1.56203 6.68112 1.56047C6.62111 1.43032 6.52507 1.32009 6.40437 1.24282C6.28366 1.16556 6.14334 1.1245 6.00003 1.1245C5.85671 1.1245 5.71639 1.16556 5.59569 1.24282C5.47498 1.32009 5.37894 1.43032 5.31893 1.56047C5.31901 1.56203 5.31901 1.5636 5.31893 1.56516L3.64081 5.32875L2.06253 3.62766C1.95423 3.50476 1.80867 3.42069 1.6481 3.38831C1.48752 3.35592 1.32076 3.377 1.17329 3.44831C1.02582 3.51963 0.90576 3.63726 0.831444 3.78324C0.757128 3.92922 0.732648 4.09552 0.761744 4.25672C0.761744 4.26188 0.761744 4.26657 0.765026 4.27172L1.82815 9.14063C1.86088 9.31208 1.95238 9.46674 2.08688 9.57797C2.22139 9.68921 2.39048 9.75004 2.56503 9.75H9.43549C9.60996 9.74994 9.77894 9.68905 9.91335 9.57782C10.0478 9.4666 10.1392 9.312 10.1719 9.14063L11.235 4.27172C11.235 4.26657 11.235 4.26188 11.2383 4.25672C11.268 4.09532 11.2433 3.92864 11.1683 3.7827C11.0932 3.63676 10.972 3.51978 10.8235 3.45ZM9.43831 8.985L9.43549 9H2.56456L2.56174 8.985L1.50003 4.125L1.50659 4.1325L3.47534 6.25313C3.5175 6.29868 3.5703 6.33306 3.62902 6.35318C3.68773 6.3733 3.75053 6.37853 3.81176 6.3684C3.873 6.35827 3.93076 6.3331 3.97987 6.29515C4.02898 6.25719 4.06791 6.20764 4.09315 6.15094L6.00003 1.875L7.90737 6.15235C7.93261 6.20905 7.97154 6.2586 8.02065 6.29655C8.06976 6.33451 8.12752 6.35968 8.18876 6.3698C8.24999 6.37993 8.31279 6.3747 8.3715 6.35458C8.43022 6.33447 8.48302 6.30009 8.52518 6.25453L10.4939 4.13391L10.5 4.125L9.43831 8.985Z" fill="#868686"/>
</svg>
