<svg width="10" height="10" viewBox="0 0 10 10" fill="none" xmlns="http://www.w3.org/2000/svg">
<path d="M9.875 8.75C9.875 8.84946 9.83549 8.94484 9.76517 9.01517C9.69484 9.08549 9.59946 9.125 9.5 9.125H0.5C0.400544 9.125 0.305161 9.08549 0.234835 9.01517C0.164509 8.94484 0.125 8.84946 0.125 8.75V1.25C0.125 1.15054 0.164509 1.05516 0.234835 0.984835C0.305161 0.914509 0.400544 0.875 0.5 0.875C0.599456 0.875 0.694839 0.914509 0.765165 0.984835C0.835491 1.05516 0.875 1.15054 0.875 1.25V5.67359L3.25297 3.59375C3.31768 3.53711 3.39989 3.50442 3.48583 3.50118C3.57177 3.49794 3.65621 3.52433 3.725 3.57594L6.48172 5.64359L9.25297 3.21875C9.28931 3.18278 9.33261 3.15462 9.38023 3.13601C9.42784 3.11739 9.47877 3.1087 9.52986 3.11049C9.58096 3.11227 9.63115 3.12448 9.67735 3.14637C9.72356 3.16827 9.7648 3.19937 9.79854 3.23779C9.83228 3.2762 9.8578 3.32111 9.87355 3.36975C9.8893 3.41839 9.89494 3.46974 9.89011 3.52064C9.88529 3.57154 9.87011 3.62091 9.8455 3.66573C9.8209 3.71055 9.78739 3.74986 9.74703 3.78125L6.74703 6.40625C6.68232 6.46289 6.60011 6.49558 6.51417 6.49882C6.42824 6.50206 6.34379 6.47567 6.275 6.42406L3.51828 4.35734L0.875 6.67016V8.375H9.5C9.59946 8.375 9.69484 8.41451 9.76517 8.48483C9.83549 8.55516 9.875 8.65054 9.875 8.75Z" fill="#EDEDED"/>
</svg>
